<svg xmlns="http://www.w3.org/2000/svg" version="1.1" xlink="http://www.w3.org/1999/xlink" xmlns:svgjs="http://svgjs.com/svgjs" width="100%" height="100%" viewBox="8.5 15 83 70.0009994506836"><g fill="#fcba4f"><path d="M28.5 51c0 5.523-4.477 10-10 10s-10-4.477-10-10 4.477-10 10-10 10 4.477 10 10m46-26c0 5.523-4.477 10-10 10s-10-4.477-10-10 4.477-10 10-10 10 4.477 10 10m0 50c0 5.523-4.477 10-10 10s-10-4.477-10-10 4.477-10 10-10 10 4.477 10 10"></path><path d="M81.5 41c-4.29 0-7.938 2.707-9.355 6.5h-9.891C61.09 41.52 55.824 37 49.5 37c-1.442 0-2.82.242-4.117.676L41.75 31.87A9.957 9.957 0 0 0 44.5 25c0-5.523-4.477-10-10-10s-10 4.477-10 10c0 5.52 4.476 10 10 10 1.055 0 2.066-.164 3.02-.465l3.515 5.613C38.262 42.531 36.5 46.058 36.5 50c0 4.05 1.851 7.664 4.754 10.051l-3.567 5.48a9.92 9.92 0 0 0-3.187-.53c-5.524 0-10 4.476-10 10 0 5.519 4.476 10 10 10s10-4.481 10-10c0-2.602-1-4.962-2.63-6.739l3.802-5.836c1.21.371 2.496.574 3.828.574 6.324 0 11.59-4.52 12.754-10.5h9.37c.727 4.809 4.864 8.5 9.876 8.5 5.523 0 10-4.48 10-10 0-5.523-4.477-10-10-10zm-32 17c-4.41 0-8-3.59-8-8s3.59-8 8-8 8 3.59 8 8-3.59 8-8 8z"></path></g></svg>