<svg width="429.00000000000006" height="98.26894107221977" viewBox="0 0 410.3636363636364 94" class="css-1j8o68f"><defs id="SvgjsDefs1020"></defs><g id="SvgjsG1021" featurekey="symbolContainer" transform="matrix(1,0,0,1,0,0)" fill="#fd7014">    <rect width="104" height="94"></rect></g><g id="SvgjsG1022" featurekey="monogramFeature-0" transform="matrix(1.508685827255249,0,0,1.508685827255249,16.288630606195632,-11.251144633315832)" fill="#ffffff"><path d="M40.56 53.4 c1.98 3.36 4.08 3.54 4.08 5.22 l0 0.24 c0 0.72 -0.54 1.14 -1.44 1.14 l-14.82 0 c-0.84 0 -1.38 -0.42 -1.38 -1.14 l0 -0.24 c0 -1.68 3.42 -2.46 1.86 -5.1 l-8.4 -14.16 l-4.68 4.74 l0 9.3 c0 2.76 2.64 3.54 2.64 5.22 l0 0.24 c0 0.72 -0.54 1.14 -1.44 1.14 l-13.08 0 c-0.84 0 -1.44 -0.42 -1.44 -1.14 l0 -0.24 c0 -1.68 2.4 -2.46 2.4 -5.22 l0 -29.46 c0 -2.76 -2.4 -3.48 -2.4 -5.16 l0 -0.24 c0 -0.72 0.6 -1.14 1.44 -1.14 l13.08 0 c0.9 0 1.44 0.42 1.44 1.14 l0 0.24 c0 1.68 -2.64 2.4 -2.64 5.16 l0 13.68 l13.26 -13.62 c2.28 -2.34 -0.42 -3.54 -0.42 -5.22 l0 -0.24 c0 -0.72 0.54 -1.14 1.44 -1.14 l9.78 0 c0.84 0 1.44 0.42 1.44 1.14 l0 0.24 c0 1.68 -3.12 2.52 -5.7 5.22 l-7.74 7.86 z"></path></g><g id="SvgjsG1023" featurekey="nameFeature-0" transform="matrix(1.6786091327667236,0,0,1.6786091327667236,120.17277038453815,3.3267019091399774)" fill="#111111"><path d="M17.36 40 l-8.96 -9.28 l-2.84 3 l0 6.28 l-3.28 0 l0 -6.84 l0 -21.44 l3.28 0 l0 17.96 l9.84 -10.48 l3.96 0 l-8.88 9.32 l10.76 11.48 l-3.88 0 z M31.799999999999997 40.32 c-4.04 0 -7.96 -2.6 -7.96 -9.04 l0 -12.08 l3.28 0 l0 12 c0 4.36 2.28 6.24 5.36 6.24 c3.72 0 6.28 -3.44 6.8 -5.96 l0 -12.28 l3.28 0 l0 20.8 l-3.28 0 l0 -4.84 c-0.4 1.44 -2.92 5.16 -7.48 5.16 z M57.88 18.84 c4.72 0 10.44 3.6 10.44 10.76 c0 7.24 -5.72 10.8 -10.44 10.8 c-3.68 0 -6.52 -2 -7.48 -4.4 l0 4 l-3.28 0 l0 -20.8 l0 -7.48 l3.28 0 l0 11.4 c0.96 -2.24 3.8 -4.28 7.48 -4.28 z M57.52 37.48 c3.52 0 7.6 -2.6 7.6 -7.88 c0 -5.24 -4.08 -7.84 -7.6 -7.84 c-3.56 0 -7.28 2.52 -7.28 7.84 c0 5.36 3.72 7.88 7.28 7.88 z M75.28 11.719999999999999 l0 2.92 l-3.28 0 l0 -2.92 l3.28 0 z M75.28 19.2 l0 20.8 l-3.28 0 l0 -20.8 l3.28 0 z M80.92 40.2 c-1.32 0 -1.96 -0.64 -1.96 -1.96 s0.64 -1.96 1.96 -1.96 s1.96 0.64 1.96 1.96 s-0.64 1.96 -1.96 1.96 z M103.84 19.2 l-13.12 17.88 l12.72 0 l0 2.92 l-18.16 0 l13.12 -17.92 l-12 0 l0 -2.88 l17.44 0 z M115.68 18.84 c4.72 0 10.68 3.6 10.68 10.8 s-5.96 10.76 -10.68 10.76 s-10.64 -3.56 -10.64 -10.76 s5.92 -10.8 10.64 -10.8 z M115.68 21.76 c-3.36 0 -7.44 2.6 -7.44 7.88 c0 5.24 4.08 7.84 7.44 7.84 c3.4 0 7.48 -2.6 7.48 -7.84 c0 -5.28 -4.08 -7.88 -7.48 -7.88 z M140.8 18.88 c4.04 0 7.96 2.6 7.96 9.04 l0 12.08 l-3.28 0 l0 -12 c0 -4.36 -2.28 -6.24 -5.36 -6.24 c-3.72 0 -6.28 3.44 -6.8 5.96 l0 12.28 l-3.28 0 l0 -20.8 l3.28 0 l0 4.84 c0.4 -1.44 2.92 -5.16 7.48 -5.16 z M162.6 18.84 c4.72 0 11.04 3.6 10.2 11.96 l-17.56 0 c0.52 4.56 4.08 6.8 7.84 6.8 c2.88 0 4.72 -0.8 6.28 -2.32 l1.92 1.76 c-1.88 2.24 -4.6 3.36 -8.24 3.36 c-5.36 0 -11.08 -3.6 -11.08 -10.76 c0 -7.2 5.92 -10.8 10.64 -10.8 z M162.6 21.68 c-3.08 0 -6.76 2.2 -7.36 6.68 l14.68 0 c-0.4 -4.48 -4.2 -6.68 -7.32 -6.68 z"></path></g></svg>